<svg width="69" height="11" viewBox="0 0 69 11" fill="none" xmlns="http://www.w3.org/2000/svg">
<g id="Group 48441">
<path id="Vector" d="M9.92206 9.98939H16.5465V8.12617H11.9299V5.84019H15.7551V3.97697H11.9299V1.86323H16.5758V0H9.92206V9.98939Z" fill="#093451"/>
<path id="Vector_2" d="M24.5194 6.29426L20.1812 0H17.1914L18.1294 1.26825V10.0364H20.1226V3.46028L24.6073 9.98939H26.5272V0H24.5194V6.29426Z" fill="#093451"/>
<path id="Vector_3" d="M6.90293 4.85378C7.78229 4.68155 8.51508 3.80474 8.51508 2.56781C8.51508 1.23693 7.60642 0 5.80374 0H0L0.908666 1.23693V10.0051H6.00892C7.8116 10.0051 8.74958 8.79943 8.74958 7.29633C8.70561 6.0594 7.91419 4.9947 6.90293 4.85378ZM2.90187 1.87888H5.40803C6.0822 1.87888 6.50722 2.30163 6.50722 2.92793C6.50722 3.55422 6.0822 3.97697 5.40803 3.97697H2.90187V1.87888ZM5.49597 8.14183H2.90187V5.84019H5.49597C6.25807 5.84019 6.68309 6.35689 6.68309 6.98318C6.68309 7.70342 6.22876 8.12617 5.49597 8.14183Z" fill="#093451"/>
<path id="Vector_4" d="M55.8097 6.29426H56.8503V7.46856C56.308 7.93828 55.6338 8.20446 54.9303 8.22011C53.2596 8.22011 52.0871 6.85792 52.0871 5.02601C52.0871 3.1941 53.2742 1.83191 54.9303 1.83191C55.795 1.83191 56.6011 2.31729 57.0701 3.10016L58.6529 2.16072C57.9788 1.01773 56.7916 0 54.9157 0C52.263 0 50.0646 1.95717 50.0646 4.9947C50.0646 8.03222 52.2337 9.98939 54.9157 9.98939C56.3813 10.0207 57.7736 9.34744 58.7409 8.1888V4.49366H54.4613L55.8097 6.29426Z" fill="#093451"/>
<path id="Vector_5" d="M46.7963 6.29426L42.4435 0H39.4684L40.3917 1.26825V10.0364H42.3995V3.46028L46.8842 9.98939H48.7895V0H46.7963V6.29426Z" fill="#093451"/>
<path id="Vector_6" d="M65.3653 0H61.5108L62.4342 1.26825L62.2729 1.75362L59.2831 10.0364H61.5402L62.1264 8.34537H66.1568L66.743 10.0364H69L65.3653 0ZM62.6393 6.45083L64.1049 2.14506L65.5705 6.45083H62.6393Z" fill="#093451"/>
<path id="Vector_7" d="M38.3106 0H36.3027V10.0364H38.3106V0Z" fill="#093451"/>
<path id="Vector_8" d="M34.7052 1.72231V0H27.6557V1.86323H32.0818L27.6557 8.28274V9.98939H34.7785V8.12617H30.2498L34.7052 1.72231Z" fill="#093451"/>
</g>
</svg>
